<svg width="9366" height="2376" fill="none" xmlns="http://www.w3.org/2000/svg"><path d="M2541.8 2167c-114.4 0-216.33-25.67-305.8-77-88-52.8-156.93-123.93-206.8-213.4-49.87-89.47-74.8-190.67-74.8-303.6 0-83.6 13.93-161.33 41.8-233.2 29.33-71.87 70.4-134.2 123.2-187 52.8-54.27 114.4-96.07 184.8-125.4 71.87-30.8 151.07-46.2 237.6-46.2 112.93 0 213.4 26.4 301.4 79.2 89.47 51.33 159.13 121 209 209 51.33 88 77 189.2 77 303.6 0 85.07-14.67 164.27-44 237.6-29.33 71.87-70.4 134.2-123.2 187-52.8 52.8-115.13 94.6-187 125.4-70.4 29.33-148.13 44-233.2 44Zm0-257.4c33.73 0 64.53-5.13 92.4-15.4 29.33-10.27 55.73-24.93 79.2-44 23.47-20.53 43.27-44.73 59.4-72.6 17.6-27.87 30.8-58.67 39.6-92.4 8.8-35.2 13.2-72.6 13.2-112.2 0-66-12.47-123.93-37.4-173.8-23.47-49.87-56.47-89.47-99-118.8s-91.67-44-147.4-44c-33.73 0-65.27 5.87-94.6 17.6-29.33 10.27-55.73 25.67-79.2 46.2-23.47 19.07-43.27 42.53-59.4 70.4-16.13 27.87-28.6 58.67-37.4 92.4-8.8 33.73-13.2 70.4-13.2 110 0 64.53 11.73 122.47 35.2 173.8 23.47 51.33 56.47 91.67 99 121 42.53 27.87 92.4 41.8 149.6 41.8Zm758.76 235.4V1003.2h299.2V2145h-299.2Zm288.2-583-26.4-308c16.13-57.2 43.27-105.6 81.4-145.2 38.13-41.07 81.4-72.6 129.8-94.6 49.87-22 98.27-33 145.2-33h44c10.27 0 19.8 1.467 28.6 4.4v286c-67.47-11.73-125.4-10.27-173.8 4.4-48.4 13.2-88 35.2-118.8 66-30.8 30.8-55 66-72.6 105.6-17.6 38.13-30.07 76.27-37.4 114.4Zm1013.13 605c-111.46 0-210.46-24.93-297-74.8-86.53-51.33-154.73-121.73-204.6-211.2-48.4-89.47-72.6-192.13-72.6-308 0-88 13.94-167.93 41.8-239.8 27.87-71.87 67.47-134.2 118.8-187 51.34-52.8 111.47-93.13 180.4-121 70.4-29.333 148.14-44 233.2-44 96.8 0 181.87 16.133 255.2 48.4 74.8 32.27 135.67 77.73 182.6 136.4 46.94 58.67 76.27 129.07 88 211.2l-286 41.8h-8.8c-5.86-26.4-15.4-50.6-28.6-72.6-11.73-22-27.86-41.07-48.4-57.2-19.06-16.13-41.06-28.6-66-37.4-24.93-10.27-52.06-15.4-81.4-15.4-42.53 0-80.66 8.8-114.4 26.4-33.73 16.13-63.06 38.87-88 68.2-23.46 29.33-41.8 64.53-55 105.6-13.2 41.07-19.8 86.53-19.8 136.4 0 49.87 6.6 96.07 19.8 138.6 13.2 41.07 31.54 76.27 55 105.6 24.94 29.33 54.27 52.07 88 68.2 33.74 16.13 71.87 24.2 114.4 24.2 61.6 0 112.94-17.6 154-52.8 42.54-36.67 68.94-85.07 79.2-145.2l297 41.8c-14.66 86.53-46.2 161.33-94.6 224.4-48.4 61.6-110.73 108.53-187 140.8-74.8 32.27-159.86 48.4-255.2 48.4Zm690.27-22V536.8h299.2v600.6c23.47-32.27 51.33-60.13 83.6-83.6 32.27-23.47 68.2-41.07 107.8-52.8 39.6-13.2 81.4-19.8 125.4-19.8 80.67 0 153.27 16.867 217.8 50.6 66 32.27 118.07 79.2 156.2 140.8 38.13 60.13 57.2 132 57.2 215.6V2145h-299.2v-682c0-46.93-8.07-87.27-24.2-121-16.13-33.73-40.33-59.4-72.6-77-30.8-19.07-68.2-28.6-112.2-28.6-39.6 0-76.27 11-110 33-32.27 22-60.13 51.33-83.6 88-22 36.67-37.4 77.73-46.2 123.2V2145h-299.2Zm1562.48-143v143h-299.2V1003.2h299.2V2002Zm-151.8-1130.8c-49.86 0-92.4-17.6-127.6-52.8-33.73-35.2-50.6-77.733-50.6-127.6 0-49.867 16.87-92.4 50.6-127.6 35.2-35.2 77.74-52.8 127.6-52.8 52.8 0 96.8 17.6 132 52.8 35.2 35.2 52.8 77.733 52.8 127.6 0 49.867-17.6 92.4-52.8 127.6-35.2 35.2-79.2 52.8-132 52.8ZM7563.66 2167c-104.13 0-196.53-25.67-277.2-77-80.67-51.33-144.47-121.73-191.4-211.2-45.47-89.47-68.2-191.4-68.2-305.8 0-86.53 13.2-165.73 39.6-237.6 26.4-71.87 63.07-134.2 110-187 48.4-52.8 104.87-93.87 169.4-123.2 66-29.333 138.6-44 217.8-44 48.4 0 93.87 6.6 136.4 19.8 42.53 13.2 79.93 31.53 112.2 55 33.73 22 60.13 46.93 79.2 74.8v-594h297V2145h-297v-129.8c-27.87 39.6-71.87 74.8-132 105.6-60.13 30.8-125.4 46.2-195.8 46.2Zm55-257.4c49.87 0 93.87-11 132-33 39.6-23.47 71.87-55.73 96.8-96.8 24.93-42.53 39.6-89.47 44-140.8v-138.6c-4.4-52.8-19.07-99-44-138.6-24.93-39.6-57.2-70.4-96.8-92.4-38.13-22-82.13-33-132-33-42.53 0-81.4 8.8-116.6 26.4-33.73 16.13-63.8 38.87-90.2 68.2-24.93 29.33-44.73 64.53-59.4 105.6-13.2 39.6-19.8 83.6-19.8 132 0 66 11.73 124.67 35.2 176 24.93 51.33 58.67 91.67 101.2 121 44 29.33 93.87 44 149.6 44ZM8849.44 2167c-98.27 0-184.8-16.13-259.6-48.4-73.33-33.73-131.27-77.73-173.8-132-41.07-54.27-64.53-112.93-70.4-176l266.2-68.2h8.8c7.33 42.53 22 77 44 103.4 23.47 26.4 51.33 46.2 83.6 59.4 32.27 13.2 66 19.8 101.2 19.8 33.73 0 62.33-4.4 85.8-13.2 24.93-10.27 44-24.2 57.2-41.8 13.2-19.07 19.8-40.33 19.8-63.8 0-27.87-10.27-50.6-30.8-68.2-19.07-17.6-46.93-30.8-83.6-39.6l-211.2-50.6c-32.27-7.33-66.73-17.6-103.4-30.8-35.2-13.2-68.2-31.53-99-55-30.8-23.47-55.73-53.53-74.8-90.2s-28.6-82.13-28.6-136.4c0-66 18.33-125.4 55-178.2 38.13-54.27 90.2-96.8 156.2-127.6 67.47-32.267 145.2-48.4 233.2-48.4 82.13 0 156.2 13.933 222.2 41.8 66 26.4 119.53 62.33 160.6 107.8 42.53 45.47 68.93 96.07 79.2 151.8l-266.2 70.4h-8.8c-5.87-35.2-18.33-63.07-37.4-83.6-19.07-22-41.8-38.13-68.2-48.4-24.93-10.27-52.07-15.4-81.4-15.4-30.8 0-57.2 5.13-79.2 15.4s-38.87 23.47-50.6 39.6c-11.73 14.67-17.6 31.53-17.6 50.6 0 26.4 10.27 46.93 30.8 61.6 20.53 14.67 49.87 27.13 88 37.4l171.6 39.6c60.13 14.67 115.87 33.73 167.2 57.2 52.8 22 95.33 56.47 127.6 103.4 32.27 45.47 48.4 109.27 48.4 191.4 0 64.53-19.8 124.67-59.4 180.4-38.13 55.73-92.4 100.47-162.8 134.2-68.93 33.73-148.87 50.6-239.8 50.6Z" fill="#fff"/><path d="M1627.99 1261.26c0-239.9-273.35-513.255-513.25-513.255a273.163 273.163 0 0 0-236.253 133.232A517.712 517.712 0 0 0 814 1034.75a517.712 517.712 0 0 0-64.487-153.513 273.163 273.163 0 0 0-236.249-133.232C273.365 748.005.005 1021.36.005 1261.26a273.145 273.145 0 0 0 35.222 135.83 273.076 273.076 0 0 0 98.01 100.42A517.594 517.594 0 0 0 286.749 1562a517.594 517.594 0 0 0-153.512 64.49 273.076 273.076 0 0 0-98.01 100.42A273.145 273.145 0 0 0 .005 1862.74c0 239.9 273.36 513.25 513.259 513.25a273.147 273.147 0 0 0 236.249-133.23A517.585 517.585 0 0 0 814 2089.25a517.585 517.585 0 0 0 64.487 153.51 273.147 273.147 0 0 0 236.253 133.23c239.9 0 513.25-273.35 513.25-513.25.29-47.57-11.85-94.4-35.22-135.83a273.064 273.064 0 0 0-98.01-100.42 517.461 517.461 0 0 0-153.51-64.49 517.461 517.461 0 0 0 153.51-64.49 273.064 273.064 0 0 0 98.01-100.42 273.094 273.094 0 0 0 35.22-135.83Z" fill="#FD8FFF"/></svg>